# xmcd
#
# Track frame offsets:
#	150
#	15633
#	31523
#	52088
#	66862
#	85519
#	104246
#	121504
#	137974
#	153991
#	171193
#	188672
#	208216
#	228921
#	246104
#	261046
#
# Disc length: 3692 seconds
#
# Revision: 0
# Processed by: cddbd v1.5.1PL0 Copyright (c) Steve Scherf et al.
# Submitted via: audiograbber 1.83.01
#
DISCID=d20e6a10
DTITLE=Various Artist - SC8933
DYEAR=1900
DGENRE=KARAOKE
TTITLE0=Toby Keith - You Ain't Leavin' (Thank God Are Ya)
TTITLE1=Cowboy Troy - Big and Rich - I Play Chicken With The Train
TTITLE2=Kenny Chesney - Be As You Are
TTITLE3=George Strait - Texas
TTITLE4=Craig Morgan - Redneck Yacht Club
TTITLE5=Dierks Bentley - Domestic, Light and Cold
TTITLE6=Neal McCoy - Billy's Got His Beer Goggles On
TTITLE7=Phil Vassar - I'll Take That As A Yes (The Hot Tub Song)
TTITLE8=Hot Apple Pie - Hillbillies (Radio Version)
TTITLE9=Jason Aldean - Hicktown (Radio Version)
TTITLE10=Jamie O'Neal - Somebody's Hero
TTITLE11=Trace Adkins - Arlington
TTITLE12=Bobby Pinson - Don't Ask Me How I Know
TTITLE13=Toby and Merle Haggard Keith - She Ain't Hooked On Me No More
TTITLE14=Joe Nichols - Tequila Makes Her Clothes Fall Off
TTITLE15=T16 - T16
EXTD=
EXTT0=
EXTT1=
EXTT2=
EXTT3=
EXTT4=
EXTT5=
EXTT6=
EXTT7=
EXTT8=
EXTT9=
EXTT10=
EXTT11=
EXTT12=
EXTT13=
EXTT14=
EXTT15=
PLAYORDER=
